HIERARCHY
ROOT mixamorig:Hips
{
	OFFSET 0.000000 99.791901 0.000000
	CHANNELS 6 Xposition Yposition Zposition Xrotation Yrotation Zrotation
	JOINT mixamorig:Spine
	{
		OFFSET 0.000038 9.923500 -1.227300
		CHANNELS 6 Xposition Yposition Zposition Xrotation Yrotation Zrotation
		JOINT mixamorig:Spine1
		{
			OFFSET -0.001154 11.645462 -1.422353
			CHANNELS 3 Xrotation Yrotation Zrotation
			JOINT mixamorig:Spine2
			{
				OFFSET -0.001065 13.360161 -1.626458
				CHANNELS 3 Xrotation Yrotation Zrotation
				JOINT mixamorig:Neck
				{
					OFFSET -0.001308 15.032516 0.792905
					CHANNELS 6 Xposition Yposition Zposition Xrotation Yrotation Zrotation
					JOINT mixamorig:Head
					{
						OFFSET -0.000902 10.321808 3.142400
						CHANNELS 6 Xposition Yposition Zposition Xrotation Yrotation Zrotation
						JOINT mixamorig:HeadTop_End
						{
							OFFSET -0.001416 18.474701 6.636400
							CHANNELS 6 Xposition Yposition Zposition Xrotation Yrotation Zrotation
							End Site
							{
								OFFSET -0.001707 19.630493 0.000000
							}
						}
					}
				}
				JOINT mixamorig:LeftShoulder
				{
					OFFSET 6.105007 9.110962 0.705601
					CHANNELS 6 Xposition Yposition Zposition Xrotation Yrotation Zrotation
					JOINT mixamorig:LeftArm
					{
						OFFSET 12.655048 -0.266434 -2.600898
						CHANNELS 3 Xrotation Yrotation Zrotation
						JOINT mixamorig:LeftForeArm
						{
							OFFSET 27.404696 0.000000 0.000000
							CHANNELS 3 Xrotation Yrotation Zrotation
							JOINT mixamorig:LeftHand
							{
								OFFSET 27.614513 0.000000 0.000000
								CHANNELS 3 Xrotation Yrotation Zrotation
								JOINT mixamorig:LeftHandThumb1
								{
									OFFSET 3.788795 -2.167099 3.003002
									CHANNELS 6 Xposition Yposition Zposition Xrotation Yrotation Zrotation
									JOINT mixamorig:LeftHandThumb2
									{
										OFFSET 3.675461 -2.122025 2.122029
										CHANNELS 6 Xposition Yposition Zposition Xrotation Yrotation Zrotation
										JOINT mixamorig:LeftHandThumb3
										{
											OFFSET 3.394363 -1.959732 1.959735
											CHANNELS 6 Xposition Yposition Zposition Xrotation Yrotation Zrotation
											JOINT mixamorig:LeftHandThumb4
											{
												OFFSET 2.679405 -1.546951 1.546957
												CHANNELS 6 Xposition Yposition Zposition Xrotation Yrotation Zrotation
												End Site
												{
													OFFSET 2.400513 -1.530563 1.964770
												}
											}
										}
									}
								}
								JOINT mixamorig:LeftHandIndex1
								{
									OFFSET 12.266594 -0.231796 2.822001
									CHANNELS 6 Xposition Yposition Zposition Xrotation Yrotation Zrotation
									JOINT mixamorig:LeftHandIndex2
									{
										OFFSET 3.891998 0.000000 0.000000
										CHANNELS 3 Xrotation Yrotation Zrotation
										JOINT mixamorig:LeftHandIndex3
										{
											OFFSET 3.415207 0.000000 0.000000
											CHANNELS 3 Xrotation Yrotation Zrotation
											JOINT mixamorig:LeftHandIndex4
											{
												OFFSET 3.077995 0.000000 0.000000
												CHANNELS 3 Xrotation Yrotation Zrotation
												End Site
												{
													OFFSET 3.078003 0.000000 0.000140
												}
											}
										}
									}
								}
								JOINT mixamorig:LeftHandMiddle1
								{
									OFFSET 12.775497 0.000000 0.000000
									CHANNELS 6 Xposition Yposition Zposition Xrotation Yrotation Zrotation
									JOINT mixamorig:LeftHandMiddle2
									{
										OFFSET 3.613998 0.000000 0.000000
										CHANNELS 3 Xrotation Yrotation Zrotation
										JOINT mixamorig:LeftHandMiddle3
										{
											OFFSET 3.459793 0.000000 0.000000
											CHANNELS 3 Xrotation Yrotation Zrotation
											JOINT mixamorig:LeftHandMiddle4
											{
												OFFSET 3.680214 0.000000 0.000000
												CHANNELS 3 Xrotation Yrotation Zrotation
												End Site
												{
													OFFSET 3.680199 0.000031 -0.004817
												}
											}
										}
									}
								}
								JOINT mixamorig:LeftHandRing1
								{
									OFFSET 12.146996 0.009995 -2.216599
									CHANNELS 6 Xposition Yposition Zposition Xrotation Yrotation Zrotation
									JOINT mixamorig:LeftHandRing2
									{
										OFFSET 3.601196 0.000000 0.000000
										CHANNELS 3 Xrotation Yrotation Zrotation
										JOINT mixamorig:LeftHandRing3
										{
											OFFSET 3.307304 0.000000 0.000000
											CHANNELS 3 Xrotation Yrotation Zrotation
											JOINT mixamorig:LeftHandRing4
											{
												OFFSET 3.660095 0.000000 0.000000
												CHANNELS 3 Xrotation Yrotation Zrotation
												End Site
												{
													OFFSET 3.660095 -0.000107 0.005639
												}
											}
										}
									}
								}
								JOINT mixamorig:LeftHandPinky1
								{
									OFFSET 10.908195 -0.226105 -4.725800
									CHANNELS 6 Xposition Yposition Zposition Xrotation Yrotation Zrotation
									JOINT mixamorig:LeftHandPinky2
									{
										OFFSET 4.136703 0.000000 0.000000
										CHANNELS 3 Xrotation Yrotation Zrotation
										JOINT mixamorig:LeftHandPinky3
										{
											OFFSET 2.594803 0.000000 0.000000
											CHANNELS 3 Xrotation Yrotation Zrotation
											JOINT mixamorig:LeftHandPinky4
											{
												OFFSET 2.923904 0.000000 0.000000
												CHANNELS 3 Xrotation Yrotation Zrotation
												End Site
												{
													OFFSET 2.923897 0.000015 -0.003363
												}
											}
										}
									}
								}
							}
						}
					}
				}
				JOINT mixamorig:RightShoulder
				{
					OFFSET -6.106493 9.110001 0.705582
					CHANNELS 6 Xposition Yposition Zposition Xrotation Yrotation Zrotation
					JOINT mixamorig:RightArm
					{
						OFFSET -12.655064 -0.265533 -2.600914
						CHANNELS 3 Xrotation Yrotation Zrotation
						JOINT mixamorig:RightForeArm
						{
							OFFSET -27.404697 0.000000 -0.000000
							CHANNELS 3 Xrotation Yrotation Zrotation
							JOINT mixamorig:RightHand
							{
								OFFSET -27.614510 0.000000 -0.000000
								CHANNELS 3 Xrotation Yrotation Zrotation
								JOINT mixamorig:RightHandThumb1
								{
									OFFSET -3.788803 -2.167099 3.003001
									CHANNELS 6 Xposition Yposition Zposition Xrotation Yrotation Zrotation
									JOINT mixamorig:RightHandThumb2
									{
										OFFSET -3.675461 -2.122025 2.122028
										CHANNELS 6 Xposition Yposition Zposition Xrotation Yrotation Zrotation
										JOINT mixamorig:RightHandThumb3
										{
											OFFSET -3.394363 -1.959732 1.959735
											CHANNELS 6 Xposition Yposition Zposition Xrotation Yrotation Zrotation
											JOINT mixamorig:RightHandThumb4
											{
												OFFSET -2.679405 -1.546951 1.546957
												CHANNELS 6 Xposition Yposition Zposition Xrotation Yrotation Zrotation
												End Site
												{
													OFFSET -2.398972 -1.531448 1.965965
												}
											}
										}
									}
								}
								JOINT mixamorig:RightHandIndex1
								{
									OFFSET -12.266602 -0.231796 2.822000
									CHANNELS 6 Xposition Yposition Zposition Xrotation Yrotation Zrotation
									JOINT mixamorig:RightHandIndex2
									{
										OFFSET -3.891998 0.000000 0.000000
										CHANNELS 3 Xrotation Yrotation Zrotation
										JOINT mixamorig:RightHandIndex3
										{
											OFFSET -3.415207 0.000000 0.000000
											CHANNELS 3 Xrotation Yrotation Zrotation
											JOINT mixamorig:RightHandIndex4
											{
												OFFSET -3.077995 0.000000 0.000000
												CHANNELS 3 Xrotation Yrotation Zrotation
												End Site
												{
													OFFSET -3.077995 0.000504 -0.008460
												}
											}
										}
									}
								}
								JOINT mixamorig:RightHandMiddle1
								{
									OFFSET -12.775505 0.000000 -0.000000
									CHANNELS 6 Xposition Yposition Zposition Xrotation Yrotation Zrotation
									JOINT mixamorig:RightHandMiddle2
									{
										OFFSET -3.613998 0.000000 0.000000
										CHANNELS 3 Xrotation Yrotation Zrotation
										JOINT mixamorig:RightHandMiddle3
										{
											OFFSET -3.459793 0.000000 0.000000
											CHANNELS 3 Xrotation Yrotation Zrotation
											JOINT mixamorig:RightHandMiddle4
											{
												OFFSET -3.680214 0.000000 0.000000
												CHANNELS 3 Xrotation Yrotation Zrotation
												End Site
												{
													OFFSET -3.680176 0.000290 0.012574
												}
											}
										}
									}
								}
								JOINT mixamorig:RightHandRing1
								{
									OFFSET -12.147003 0.009995 -2.216600
									CHANNELS 6 Xposition Yposition Zposition Xrotation Yrotation Zrotation
									JOINT mixamorig:RightHandRing2
									{
										OFFSET -3.601196 0.000000 0.000000
										CHANNELS 3 Xrotation Yrotation Zrotation
										JOINT mixamorig:RightHandRing3
										{
											OFFSET -3.307304 0.000000 0.000000
											CHANNELS 3 Xrotation Yrotation Zrotation
											JOINT mixamorig:RightHandRing4
											{
												OFFSET -3.660103 0.000000 0.000000
												CHANNELS 3 Xrotation Yrotation Zrotation
												End Site
												{
													OFFSET -3.660103 0.000427 0.002204
												}
											}
										}
									}
								}
								JOINT mixamorig:RightHandPinky1
								{
									OFFSET -10.908203 -0.226105 -4.725801
									CHANNELS 6 Xposition Yposition Zposition Xrotation Yrotation Zrotation
									JOINT mixamorig:RightHandPinky2
									{
										OFFSET -4.136703 0.000000 0.000000
										CHANNELS 3 Xrotation Yrotation Zrotation
										JOINT mixamorig:RightHandPinky3
										{
											OFFSET -2.594803 0.000000 0.000000
											CHANNELS 3 Xrotation Yrotation Zrotation
											JOINT mixamorig:RightHandPinky4
											{
												OFFSET -2.923904 0.000000 0.000000
												CHANNELS 3 Xrotation Yrotation Zrotation
												End Site
												{
													OFFSET -2.923866 0.000595 -0.012896
												}
											}
										}
									}
								}
							}
						}
					}
				}
			}
		}
	}
	JOINT mixamorig:LeftUpLeg
	{
		OFFSET 9.124481 -6.656403 -0.055368
		CHANNELS 6 Xposition Yposition Zposition Xrotation Yrotation Zrotation
		JOINT mixamorig:LeftLeg
		{
			OFFSET 0.244688 -40.595383 -0.515629
			CHANNELS 3 Xrotation Yrotation Zrotation
			JOINT mixamorig:LeftFoot
			{
				OFFSET -0.244684 -42.047905 -2.059130
				CHANNELS 3 Xrotation Yrotation Zrotation
				JOINT mixamorig:LeftToeBase
				{
					OFFSET 0.373535 -7.208565 13.966596
					CHANNELS 3 Xrotation Yrotation Zrotation
					JOINT mixamorig:LeftToe_End
					{
						OFFSET -0.142057 -0.175231 9.997458
						CHANNELS 3 Xrotation Yrotation Zrotation
						End Site
						{
							OFFSET -0.142057 -0.175231 9.997458
						}
					}
				}
			}
		}
	}
	JOINT mixamorig:RightUpLeg
	{
		OFFSET -9.124419 -6.656395 -0.055432
		CHANNELS 6 Xposition Yposition Zposition Xrotation Yrotation Zrotation
		JOINT mixamorig:RightLeg
		{
			OFFSET -0.244683 -40.595413 -0.514284
			CHANNELS 3 Xrotation Yrotation Zrotation
			JOINT mixamorig:RightFoot
			{
				OFFSET 0.244687 -42.047836 -2.060526
				CHANNELS 3 Xrotation Yrotation Zrotation
				JOINT mixamorig:RightToeBase
				{
					OFFSET -0.373540 -7.208565 13.966594
					CHANNELS 3 Xrotation Yrotation Zrotation
					JOINT mixamorig:RightToe_End
					{
						OFFSET 0.141792 -0.175015 9.997463
						CHANNELS 3 Xrotation Yrotation Zrotation
						End Site
						{
							OFFSET 0.141792 -0.175015 9.997463
						}
					}
				}
			}
		}
	}
}
MOTION
Frames: 4
Frame Time: 0.033333
22.786146 88.826294 73.659645 3.386118 2.986331 -6.585416 0.000038 9.923504 -1.227289 7.000314 1.972141 -2.303687 13.434349 5.128057 -5.853637 13.391937 4.919602 -6.180741 -0.001305 15.032484 0.792903 14.811216 3.206073 3.035656 -0.000908 10.321812 3.142379 -13.981887 8.090299 18.213584 -0.001417 18.474716 6.636394 0.000001 0.000000 -0.000000 6.105012 9.110929 0.705601 1.792280 -10.899103 24.160399 -79.330182 -43.538809 -51.322038 0.000000 -19.487209 0.000010 -9.763729 -5.925725 -6.285833 3.788773 -2.167075 3.003019 0.626538 5.419196 2.939369 3.675478 -2.122007 2.122045 4.330100 -0.661768 -3.639586 3.394366 -1.959716 1.959737 7.567982 41.114775 -0.574077 2.679389 -1.546933 1.546964 -0.000002 -0.000007 0.000007 12.266591 -0.231799 2.822002 -11.214690 -7.851936 -13.475818 0.126557 2.748757 -20.406553 1.629996 4.971272 -40.072129 -0.000000 -0.000004 -0.000000 12.775484 0.000003 0.000009 -0.959027 -2.230413 -0.234622 1.950733 6.449940 -53.928104 -0.261683 2.389866 -17.738761 -0.000001 -0.000001 -0.000001 12.146982 0.010006 -2.216604 -2.626873 11.796495 17.615340 -0.019161 3.425197 -25.377884 1.135729 4.628415 -36.595631 -0.000004 0.000000 -0.000002 10.908178 -0.226096 -4.725795 3.613650 25.110957 3.251877 0.229695 3.655773 -26.762457 3.036706 6.446792 -55.038897 -0.000004 -0.000001 -0.000001 -6.106493 9.109980 0.705579 -1.305790 -9.090557 -6.645833 106.869422 111.581577 -124.949240 -0.000007 20.537935 0.000003 -5.570421 12.643177 12.918145 -3.788789 -2.167123 3.003014 -7.743928 22.753051 -16.040399 -3.675433 -2.122029 2.122044 6.934094 -44.978841 -9.137426 -3.394383 -1.959734 1.959738 -12.903962 21.733595 7.991469 -2.679391 -1.546933 1.546967 0.000001 0.000004 -0.000003 -12.266581 -0.231783 2.822001 0.371990 -3.723795 -20.941316 1.864441 -5.469492 44.606234 -0.103872 -1.103905 8.178450 0.000002 -0.000000 -0.000002 -12.775508 0.000003 -0.000002 -0.739324 -3.087169 -14.591149 2.582678 -6.730578 59.796353 1.590592 -5.456163 44.422376 0.000002 -0.000000 -0.000002 -12.146996 0.009997 -2.216605 -0.206991 -8.038019 15.475330 -0.714951 -0.996945 6.584947 -0.351839 -0.777728 5.617962 0.000002 -0.000002 -0.000002 -10.908214 -0.226112 -4.725803 0.525287 -10.068840 29.061044 2.824740 -6.599652 55.817324 1.801849 -5.380762 43.052083 -0.000000 -0.000004 -0.000002 9.124483 -6.656404 -0.055356 -22.254840 5.962210 11.066978 54.718408 9.712087 4.237024 -37.447339 -4.652747 -11.466823 -0.883203 -0.000006 0.000001 -0.000000 0.000001 0.000000 -9.124418 -6.656398 -0.055427 -43.358017 -4.447596 3.542690 72.668841 -12.534809 0.295180 5.091055 -27.296474 4.037332 -29.610902 -0.296178 3.953741 0.000000 -0.000004 -0.000001 
21.959721 88.678436 75.198219 3.657902 5.715880 -6.132388 0.000038 9.923500 -1.227298 7.056324 1.849712 -1.766289 13.564659 4.992038 -5.297116 13.531229 4.778177 -5.684607 -0.001304 15.032535 0.792901 14.082682 2.829084 2.519606 -0.000897 10.321788 3.142394 -14.693393 6.777642 16.263111 -0.001414 18.474701 6.636385 -0.000003 0.000001 -0.000001 6.105012 9.110971 0.705595 1.804149 -11.271168 24.582162 -79.166312 -43.045242 -51.292846 0.000010 -21.039370 0.000021 -9.757305 -5.954710 -6.106591 3.788800 -2.167058 3.003004 0.626536 5.419195 2.939370 3.675482 -2.122002 2.122028 4.330101 -0.661766 -3.639591 3.394340 -1.959753 1.959733 7.567992 41.114778 -0.574078 2.679402 -1.546949 1.546964 0.000000 -0.000002 0.000004 12.266614 -0.231784 2.822010 -11.214693 -7.851936 -13.475816 0.126561 2.748757 -20.406551 1.629997 4.971270 -40.072129 0.000001 0.000004 0.000000 12.775492 0.000033 0.000011 -0.959026 -2.230414 -0.234622 1.950735 6.449941 -53.928100 -0.261685 2.389864 -17.738761 -0.000000 -0.000002 -0.000002 12.146994 0.010023 -2.216596 -2.626875 11.796496 17.615338 -0.019161 3.425195 -25.377882 1.135731 4.628414 -36.595631 -0.000004 0.000001 -0.000001 10.908215 -0.226082 -4.725791 3.613642 25.110958 3.251877 0.229698 3.655770 -26.762457 3.036709 6.446790 -55.038901 0.000001 -0.000001 0.000001 -6.106492 9.110031 0.705578 -1.314456 -9.724093 -5.853778 113.570398 110.482039 -133.739735 -0.000001 20.958350 -0.000006 -6.007830 12.103580 13.328159 -3.788804 -2.167093 3.003009 -7.743931 22.753056 -16.040397 -3.675457 -2.122012 2.122021 6.934096 -44.978838 -9.137419 -3.394395 -1.959734 1.959749 -12.903961 21.733595 7.991474 -2.679393 -1.546933 1.546973 0.000001 -0.000003 -0.000002 -12.266607 -0.231752 2.821997 0.371990 -3.723790 -20.941321 1.864441 -5.469494 44.606234 -0.103875 -1.103907 8.178447 -0.000000 -0.000001 0.000001 -12.775516 0.000018 0.000004 -0.739322 -3.087165 -14.591149 2.582678 -6.730573 59.796353 1.590593 -5.456163 44.422376 -0.000001 0.000001 -0.000001 -12.147018 0.010024 -2.216608 -0.206990 -8.038014 15.475332 -0.714946 -0.996944 6.584942 -0.351838 -0.777732 5.617960 -0.000001 -0.000001 -0.000003 -10.908221 -0.226090 -4.725809 0.525287 -10.068838 29.061048 2.824744 -6.599651 55.817324 1.801850 -5.380762 43.052083 0.000000 0.000001 0.000001 9.124483 -6.656402 -0.055365 -21.527114 5.619235 11.574979 54.116108 8.722736 4.180907 -38.027000 -6.216267 -12.253006 -1.078346 -0.000001 0.000003 -0.000000 -0.000001 0.000000 -9.124420 -6.656406 -0.055427 -45.424194 -3.067273 0.516872 70.908299 -13.001055 0.352632 3.028661 -24.555631 4.456799 -26.789477 0.000026 -0.000003 -0.000000 -0.000001 0.000002 
21.013443 88.628578 76.604721 3.909562 8.488639 -5.761119 0.000036 9.923501 -1.227285 7.125993 1.749164 -1.092047 13.710673 4.852906 -4.691514 13.683940 4.640173 -5.147040 -0.001306 15.032518 0.792906 12.942689 2.218670 1.757124 -0.000894 10.321809 3.142391 -15.658548 4.577868 13.330809 -0.001408 18.474701 6.636384 -0.000002 0.000001 -0.000001 6.105013 9.110955 0.705607 2.029092 -11.655630 25.967425 -78.989280 -42.549264 -51.255116 -0.000002 -22.659042 -0.000010 -9.690279 -6.017932 -5.750026 3.788807 -2.167077 3.003004 0.626540 5.419197 2.939370 3.675449 -2.122009 2.122032 4.330097 -0.661765 -3.639590 3.394344 -1.959741 1.959729 7.567980 41.114785 -0.574076 2.679379 -1.546939 1.546953 -0.000005 0.000001 0.000008 12.266622 -0.231780 2.821997 -11.214688 -7.851936 -13.475816 0.126562 2.748759 -20.406558 1.629997 4.971273 -40.072126 -0.000000 -0.000000 -0.000000 12.775506 0.000002 -0.000008 -0.959019 -2.230414 -0.234622 1.950732 6.449941 -53.928107 -0.261686 2.389863 -17.738761 0.000000 0.000001 -0.000001 12.147032 0.010027 -2.216610 -2.626865 11.796496 17.615340 -0.019165 3.425194 -25.377879 1.135724 4.628413 -36.595634 -0.000001 -0.000000 0.000003 10.908229 -0.226091 -4.725806 3.613655 25.110957 3.251877 0.229697 3.655773 -26.762457 3.036715 6.446786 -55.038894 0.000002 -0.000000 -0.000000 -6.106494 9.110017 0.705574 -1.302871 -10.376525 -5.023581 120.647847 109.770634 -143.034010 0.000011 21.415138 -0.000007 -6.266170 11.490762 13.404570 -3.788812 -2.167093 3.003011 -7.743930 22.753056 -16.040394 -3.675447 -2.121999 2.122034 6.934098 -44.978838 -9.137420 -3.394383 -1.959734 1.959741 -12.903962 21.733602 7.991465 -2.679400 -1.546955 1.546962 0.000001 0.000000 -0.000002 -12.266603 -0.231783 2.822001 0.371990 -3.723791 -20.941317 1.864441 -5.469493 44.606234 -0.103873 -1.103905 8.178448 0.000002 0.000000 -0.000003 -12.775523 0.000024 0.000001 -0.739321 -3.087163 -14.591149 2.582677 -6.730576 59.796353 1.590595 -5.456164 44.422376 0.000001 0.000002 -0.000003 -12.147011 0.010026 -2.216595 -0.206989 -8.038013 15.475334 -0.714949 -0.996947 6.584944 -0.351836 -0.777728 5.617958 0.000001 -0.000001 -0.000008 -10.908237 -0.226086 -4.725796 0.525288 -10.068837 29.061048 2.824745 -6.599650 55.817320 1.801849 -5.380760 43.052083 0.000000 -0.000002 0.000003 9.124482 -6.656407 -0.055354 -20.832523 4.994706 12.078489 53.221999 7.808637 4.248490 -38.276421 -7.568546 -13.163730 -1.304497 -0.000006 -0.000003 -0.000000 0.000002 0.000000 -9.124420 -6.656397 -0.055406 -45.882612 -1.956555 -2.904151 67.175361 -12.423559 0.151209 -0.264024 -21.693041 3.989039 -22.709013 0.000009 0.000014 -0.000000 0.000000 -0.000001 
19.984261 88.590012 77.879204 4.125937 11.315347 -5.306704 0.000039 9.923496 -1.227308 7.204791 1.665664 -0.340808 13.865686 4.714412 -4.046907 13.844466 4.507356 -4.576426 -0.001300 15.032488 0.792913 11.514043 1.472733 0.826512 -0.000898 10.321805 3.142415 -16.892912 1.837648 9.829481 -0.001421 18.474716 6.636389 0.000003 0.000001 -0.000000 6.105023 9.110930 0.705611 2.401183 -12.027275 27.964123 -78.813928 -42.048004 -51.223690 0.000002 -24.335291 0.000009 -9.585221 -6.101525 -5.276186 3.788806 -2.167082 3.003018 0.626541 5.419198 2.939374 3.675482 -2.122018 2.122039 4.330103 -0.661770 -3.639594 3.394332 -1.959758 1.959743 7.567980 41.114775 -0.574076 2.679418 -1.546922 1.546944 -0.000003 0.000002 0.000004 12.266614 -0.231772 2.822014 -11.214687 -7.851936 -13.475817 0.126554 2.748758 -20.406553 1.629999 4.971270 -40.072122 -0.000001 -0.000002 0.000000 12.775515 0.000017 0.000011 -0.959023 -2.230413 -0.234622 1.950731 6.449942 -53.928104 -0.261686 2.389864 -17.738759 -0.000002 0.000001 -0.000000 12.147004 0.010045 -2.216588 -2.626867 11.796497 17.615336 -0.019160 3.425198 -25.377879 1.135729 4.628414 -36.595638 0.000000 0.000001 0.000001 10.908213 -0.226113 -4.725794 3.613650 25.110960 3.251877 0.229697 3.655774 -26.762455 3.036711 6.446791 -55.038907 -0.000007 0.000003 0.000002 -6.106486 9.109959 0.705580 -1.270502 -11.044078 -4.172390 127.735397 109.456773 -152.447336 -0.000011 21.890490 0.000007 -6.393288 10.959973 13.229873 -3.788839 -2.167116 3.003012 -7.743928 22.753059 -16.040395 -3.675446 -2.122033 2.122021 6.934098 -44.978845 -9.137421 -3.394370 -1.959764 1.959742 -12.903959 21.733595 7.991461 -2.679414 -1.546901 1.546960 -0.000001 0.000003 -0.000006 -12.266603 -0.231787 2.822011 0.371989 -3.723790 -20.941321 1.864441 -5.469490 44.606231 -0.103874 -1.103905 8.178451 0.000004 -0.000001 -0.000001 -12.775523 0.000015 0.000010 -0.739322 -3.087165 -14.591147 2.582678 -6.730576 59.796353 1.590592 -5.456164 44.422376 0.000002 0.000002 0.000001 -12.147026 0.010009 -2.216600 -0.206992 -8.038017 15.475337 -0.714949 -0.996947 6.584942 -0.351838 -0.777731 5.617956 -0.000003 -0.000002 0.000001 -10.908230 -0.226093 -4.725797 0.525287 -10.068836 29.061048 2.824745 -6.599651 55.817324 1.801848 -5.380760 43.052083 0.000000 -0.000001 -0.000002 9.124483 -6.656423 -0.055366 -20.261147 4.291122 12.502391 52.249117 6.768326 4.372045 -38.318980 -8.755363 -14.052840 -1.705747 0.000000 0.000001 0.000000 0.000001 0.000000 -9.124419 -6.656408 -0.055428 -45.470239 -1.354969 -6.564028 61.981733 -11.487315 -0.184943 -3.154077 -18.037495 3.279323 -14.281950 0.000015 0.000004 0.000000 0.000000 -0.000000 
